<svg id="Group_179900" data-name="Group 179900" xmlns="http://www.w3.org/2000/svg" width="21.77" height="20.301" viewBox="0 0 21.77 20.301">
  <path id="Path_66601" data-name="Path 66601" d="M21.132,36.3a2.692,2.692,0,0,1-1.424-.358c-.166-.083-.34-.169-.541-.246l2.154-5.667a1.664,1.664,0,0,0-1.135-2.2L18.7,27.438V22.99A1.7,1.7,0,0,0,17.01,21.3H14.083V19.651a2.379,2.379,0,0,0-2.377-2.377H10.063a2.379,2.379,0,0,0-2.377,2.377V21.3H4.759A1.7,1.7,0,0,0,3.066,22.99v4.449l-1.483.388a1.664,1.664,0,0,0-1.135,2.2L2.6,35.695c-.2.077-.375.164-.541.246A2.693,2.693,0,0,1,.638,36.3a.638.638,0,1,0,0,1.276,3.923,3.923,0,0,0,1.992-.492,2.693,2.693,0,0,1,1.424-.358,2.692,2.692,0,0,1,1.424.358,3.923,3.923,0,0,0,1.992.492,3.923,3.923,0,0,0,1.992-.492,2.692,2.692,0,0,1,1.424-.358,2.692,2.692,0,0,1,1.423.358,3.923,3.923,0,0,0,1.992.492,3.923,3.923,0,0,0,1.992-.492,3.007,3.007,0,0,1,2.847,0,3.923,3.923,0,0,0,1.992.492.638.638,0,1,0,0-1.276ZM8.962,19.651a1.1,1.1,0,0,1,1.1-1.1h1.643a1.1,1.1,0,0,1,1.1,1.1V21.3H8.962ZM4.342,22.99a.418.418,0,0,1,.418-.418H17.01a.418.418,0,0,1,.418.418v4.115l-6.382-1.668a.638.638,0,0,0-.322,0L4.342,27.105V22.99ZM15.724,35.941A2.692,2.692,0,0,1,14.3,36.3a2.692,2.692,0,0,1-1.423-.358,3.923,3.923,0,0,0-1.992-.492,3.923,3.923,0,0,0-1.992.492A2.692,2.692,0,0,1,7.47,36.3a2.692,2.692,0,0,1-1.424-.358,3.923,3.923,0,0,0-1.992-.492l-.179,0L1.64,29.574a.389.389,0,0,1,.265-.514l8.98-2.346,8.98,2.346a.389.389,0,0,1,.265.514L17.9,35.452l-.179,0A3.923,3.923,0,0,0,15.724,35.941Z" transform="translate(0 -17.274)" fill="silver"/>
  <path id="Path_66602" data-name="Path 66602" d="M118.381,281.844l-5.735-1.5a.639.639,0,0,0-.322,0l-5.735,1.5a.638.638,0,1,0,.322,1.234l5.574-1.456,5.574,1.456a.638.638,0,0,0,.322-1.234Z" transform="translate(-101.599 -269.14)" fill="silver"/>
</svg>
