<svg id="vuesax_bold_heart" data-name="vuesax/bold/heart" xmlns="http://www.w3.org/2000/svg" width="19.766" height="19.766" viewBox="0 0 19.766 19.766">
  <g id="heart">
    <path id="Vector" d="M11.892,0A4.57,4.57,0,0,0,8.236,1.837,4.572,4.572,0,0,0,0,4.6,8.794,8.794,0,0,0,.428,7.33c1.3,4.118,5.312,6.58,7.3,7.256a1.8,1.8,0,0,0,1.021,0c1.985-.675,6-3.138,7.3-7.256A8.794,8.794,0,0,0,16.471,4.6,4.59,4.59,0,0,0,11.892,0Z" transform="translate(1.647 2.553)" fill="#fff"/>
    <path id="Vector-2" data-name="Vector" d="M0,0H19.766V19.766H0Z" transform="translate(19.766 19.766) rotate(180)" fill="none" opacity="0"/>
  </g>
</svg>
