<svg id="ship_broken" data-name="ship/broken" xmlns="http://www.w3.org/2000/svg" width="24" height="24" viewBox="0 0 24 24">
  <g id="vuesax_broken_ship" data-name="vuesax/broken/ship">
    <g id="ship">
      <path id="Vector" d="M2.782,11.155a7.049,7.049,0,0,1-2.33-3.94l-.41-1.86a2.078,2.078,0,0,1,1.21-2.29l1.42-.57L8.182.285a4.037,4.037,0,0,1,2.98,0l5.51,2.21,1.42.57a2.078,2.078,0,0,1,1.21,2.29l-.41,1.86a6.739,6.739,0,0,1-6.84,5.48H7.292" transform="translate(2.328 9.305)" fill="none" stroke="#949494" stroke-linecap="round" stroke-linejoin="round" stroke-width="1.5"/>
      <path id="Vector-2" data-name="Vector" d="M0,12V0" transform="translate(12 10)" fill="none" stroke="#949494" stroke-linecap="round" stroke-linejoin="round" stroke-width="1.5"/>
      <path id="Vector-3" data-name="Vector" d="M14,3V6.8L8.49,4.59a4.037,4.037,0,0,0-2.98,0L0,6.8V3A3.009,3.009,0,0,1,3,0h8A3.009,3.009,0,0,1,14,3Z" transform="translate(5 5)" fill="none" stroke="#949494" stroke-linecap="round" stroke-linejoin="round" stroke-width="1.5"/>
      <path id="Vector-4" data-name="Vector" d="M5,3H0V1A1,1,0,0,1,1,0H4A1,1,0,0,1,5,1Z" transform="translate(9.5 2)" fill="none" stroke="#949494" stroke-linecap="round" stroke-linejoin="round" stroke-width="1.5"/>
      <path id="Vector-5" data-name="Vector" d="M0,0H24V24H0Z" fill="none" opacity="0"/>
    </g>
  </g>
</svg>
