<svg id="routing" xmlns="http://www.w3.org/2000/svg" width="15.724" height="15.724" viewBox="0 0 15.724 15.724">
  <path id="Vector" d="M.065,1.7a2.309,2.309,0,0,1,4.455,0A3.436,3.436,0,0,1,3.249,4.858a1.4,1.4,0,0,1-1.92,0A3.447,3.447,0,0,1,.065,1.7Z" transform="translate(1.291 1.314)" fill="none" stroke="silver" stroke-width="1"/>
  <path id="Vector-2" data-name="Vector" d="M.065,1.7a2.327,2.327,0,0,1,4.481,0A3.425,3.425,0,0,1,3.269,4.858a1.408,1.408,0,0,1-1.926,0A3.425,3.425,0,0,1,.065,1.7Z" transform="translate(9.808 9.175)" fill="none" stroke="silver" stroke-width="1"/>
  <path id="Vector-3" data-name="Vector" d="M3.064,0H4.82a1.312,1.312,0,0,1,.865,2.3L.45,6.879a1.308,1.308,0,0,0,.858,2.293H3.064" transform="translate(4.797 3.276)" fill="none" stroke="silver" stroke-linecap="round" stroke-linejoin="round" stroke-width="1"/>
  <path id="Vector-4" data-name="Vector" d="M.636.5H.644" transform="translate(2.958 3.103)" fill="none" stroke="silver" stroke-linecap="round" stroke-linejoin="round" stroke-width="1"/>
  <path id="Vector-5" data-name="Vector" d="M.636.5H.644" transform="translate(11.475 10.965)" fill="none" stroke="silver" stroke-linecap="round" stroke-linejoin="round" stroke-width="1"/>
  <path id="Vector-6" data-name="Vector" d="M0,0H15.724V15.724H0Z" transform="translate(15.724 15.724) rotate(180)" fill="none" opacity="0"/>
</svg>
