<svg id="sun-fog_bulk" data-name="sun-fog/bulk" xmlns="http://www.w3.org/2000/svg" width="24" height="24" viewBox="0 0 24 24">
  <g id="vuesax_bulk_sun-fog" data-name="vuesax/bulk/sun-fog">
    <g id="sun-fog">
      <path id="Vector" d="M0,0H24V24H0Z" fill="none" opacity="0"/>
      <g id="Group">
        <path id="Vector-2" data-name="Vector" d="M13.461,7a.5.5,0,0,0,.5-.52A7,7,0,0,0,0,6.48.5.5,0,0,0,.5,7Z" transform="translate(5.019 5.25)" fill="#174862"/>
      </g>
      <path id="Vector-3" data-name="Vector" d="M21,12h-.08a1,1,0,0,1,0-2,1.038,1.038,0,0,1,1.04,1A.969.969,0,0,1,21,12ZM1.08,12H1a1,1,0,0,1,0-2,1.038,1.038,0,0,1,1.04,1A.969.969,0,0,1,1.08,12ZM18.01,4.99a1.024,1.024,0,0,1-.71-.29,1,1,0,0,1,0-1.41l.13-.13a1,1,0,0,1,1.41,1.41l-.13.13A.984.984,0,0,1,18.01,4.99Zm-14.02,0a1.024,1.024,0,0,1-.71-.29l-.13-.13A1,1,0,0,1,4.56,3.16l.13.13a1,1,0,0,1-.7,1.7ZM11,2.04a.969.969,0,0,1-1-.96V1a1,1,0,0,1,2,0A1.038,1.038,0,0,1,11,2.04Z" transform="translate(1 1)" fill="#174862"/>
      <path id="Vector-4" data-name="Vector" d="M16.75,1.5H.75A.755.755,0,0,1,0,.75.755.755,0,0,1,.75,0h16a.755.755,0,0,1,.75.75A.755.755,0,0,1,16.75,1.5Z" transform="translate(3.25 14.25)" fill="#174862" opacity="0.4"/>
      <path id="Vector-5" data-name="Vector" d="M12.75,1.5H.75A.755.755,0,0,1,0,.75.755.755,0,0,1,.75,0h12a.755.755,0,0,1,.75.75A.755.755,0,0,1,12.75,1.5Z" transform="translate(5.25 17.25)" fill="#174862" opacity="0.4"/>
      <path id="Vector-6" data-name="Vector" d="M6.75,1.5h-6A.755.755,0,0,1,0,.75.755.755,0,0,1,.75,0h6A.755.755,0,0,1,7.5.75.755.755,0,0,1,6.75,1.5Z" transform="translate(8.25 20.25)" fill="#174862" opacity="0.4"/>
    </g>
  </g>
</svg>
